<?xml version="1.0" encoding="UTF-8"?>
<!DOCTYPE svg PUBLIC "-//W3C//DTD SVG 1.1//EN" "http://www.w3.org/Graphics/SVG/1.1/DTD/svg11.dtd">
<!-- Creator: CorelDRAW -->
<svg xmlns="http://www.w3.org/2000/svg" xml:space="preserve" width="33px" height="31px" version="1.1" style="shape-rendering:geometricPrecision; text-rendering:geometricPrecision; image-rendering:optimizeQuality; fill-rule:evenodd; clip-rule:evenodd"
viewBox="0 0 6.83 6.51"
 xmlns:xlink="http://www.w3.org/1999/xlink"
 xmlns:xodm="http://www.corel.com/coreldraw/odm/2003">
 <defs>
  <style type="text/css">
   <![CDATA[
    .fil0 {fill:#FEFEFE}
   ]]>
  </style>
 </defs>
 <g id="Capa_x0020_1">
  <metadata id="CorelCorpID_0Corel-Layer"/>
  <path class="fil0" d="M1.36 3.59c0.32,-0.01 1.25,0.18 0.72,0.28 -0.17,0.03 -0.08,0.3 0.1,0.21 0.05,-0.02 0.12,-0.33 0.15,-0.37 0.03,0.04 0.03,0.09 0.06,0.13 0.08,-0.03 0.03,-0.16 0.12,0.01l0.06 -0.04c0.3,0.16 0.52,0.33 0.68,0.57 0.18,0.28 0.27,0.67 0.02,0.91 -0.33,0.31 -1.11,0.21 -1.56,0.1 -0.14,-0.04 -0.38,-0.13 -0.5,-0.11 0,0.13 0.19,0.16 0.29,0.2 0.12,0.04 0.25,0.08 0.38,0.11 0.29,0.06 0.6,0.07 0.9,0.08 0.16,0.01 0.31,0.01 0.47,0.02 0.15,0 0.34,-0.01 0.35,0.14 0.02,0.29 -0.59,0.03 -0.77,0.08 0.02,0.05 0.02,0.05 0.08,0.07 0.15,0.08 0.39,0.12 0.5,0.26 0.06,0.09 0.02,0.18 -0.08,0.18 -0.22,0.01 -0.66,-0.37 -0.85,-0.34 0,0.15 0.31,0.17 0.27,0.39 -0.1,0.08 -0.17,0.04 -0.26,-0.02l-0.65 -0.42c-0.58,-0.35 -1.27,-0.66 -1.66,-1.22 -0.25,-0.37 -0.21,-0.69 -0.06,-1.14 0.34,-1.03 1,-1.89 1.98,-2.33 0.33,-0.15 0.71,-0.25 1.1,-0.33 0.17,-0.03 0.43,-0.07 0.59,-0.13 0.18,-0.06 0.24,-0.21 0.37,-0.33 0.08,-0.07 0.23,-0.15 0.31,-0.23 0.16,-0.15 0.28,-0.32 0.59,-0.32 0.59,0.01 0.64,0.54 0.77,0.68 0.16,0.18 0.54,0.22 0.83,0.61 0.29,0.41 0.19,0.74 -0.12,0.99 -0.13,0.11 -0.27,0.18 -0.42,0.28 -0.32,0.21 -0.28,0.5 -0.73,1.07 -0.15,0.19 -0.18,0.23 -0.06,0.51 0.04,0.09 0.08,0.14 0.19,0.17 0.16,0.04 0.54,-0.01 0.54,0.18 -0.07,0.11 -0.19,0.05 -0.34,0.06 0.07,0.15 0.55,0.13 0.57,0.32 0.03,0.29 -0.49,-0.02 -0.61,-0.02 0.01,0.16 0.41,0.22 0.24,0.45 -0.16,0.03 -0.36,-0.14 -0.46,-0.21 -0.67,-0.44 -0.31,-0.1 -0.45,0 -0.18,0.14 -0.42,-0.42 -0.46,-0.54 -0.16,-0.51 -0.14,-0.41 0.23,-0.65 0.23,-0.14 0.4,-0.3 0.55,-0.49 0.08,-0.09 0.39,-0.54 0.32,-0.72 -0.17,-0.07 -0.56,0.24 -0.68,0.16 -0.13,-0.13 0.64,-0.38 0.8,-0.44 0.09,-0.04 0.9,-0.33 0.79,-0.46 -0.04,-0.05 -0.11,-0.02 -0.18,0l-0.57 0.16c-0.26,0.08 -0.48,0.15 -0.72,0.25 -0.46,0.19 -0.87,0.49 -1.48,0.43 -0.4,-0.03 -0.46,0.06 -0.69,0.24 -0.24,0.19 -0.59,-0.04 -0.81,0.13 -0.37,0.27 -0.12,0.22 -0.69,0.26 -0.46,0.04 -0.69,0.31 -0.6,0.42 0.06,-0.08 0.02,-0.11 0.09,0 0.05,-0.05 0.03,-0.06 0.05,-0.14 0.03,-0.04 0.01,-0.02 0.08,-0.05 0.04,-0.01 0.06,-0.01 0.1,-0.02 0.08,-0.01 0.14,-0.03 0.22,-0.04zm3.65 -3.03c0.37,0.07 0.7,0.44 0.6,0.9 -0.2,0.93 -1.71,0.74 -1.53,-0.33 0.08,-0.45 0.51,-0.65 0.93,-0.57zm-3.52 4.07c-0.09,0.08 -0.2,0.05 -0.18,-0.05 0.02,-0.1 0.17,-0.11 0.18,0.05zm1.49 -0.13c-0.21,0.07 -0.23,-0.19 -0.02,-0.15 0.04,0.07 0.05,0.05 0.02,0.15zm0.07 -2.51c0.12,0.08 0.01,0.21 -0.1,0.16 -0.11,-0.05 -0.01,-0.23 0.1,-0.16zm-0.38 2.25c-0.12,0.04 -0.28,-0.07 -0.19,-0.16 0.07,-0.07 0.25,0 0.19,0.16zm1.62 -2.06c0.12,0.08 0.02,0.25 -0.11,0.19 -0.11,-0.06 -0.02,-0.27 0.11,-0.19zm-3.14 0.28c0.05,0.05 -0.04,0.13 -0.07,0.16 -0.02,0.03 -0.12,0.13 -0.17,0.07 -0.06,-0.06 0.17,-0.3 0.24,-0.23zm-0.91 1.73c-0.03,-0.08 0.16,-0.29 0.29,-0.26 0.02,0.1 -0.19,0.27 -0.25,0.27 -0.07,0 -0.02,0 -0.04,-0.01zm1.6 -1.29c0.14,0.11 -0.03,0.26 -0.14,0.19 -0.11,-0.08 0,-0.3 0.14,-0.19zm1.07 -0.38c0.17,0.05 0.08,0.27 -0.07,0.24 -0.16,-0.04 -0.1,-0.3 0.07,-0.24zm-1.01 2.03c0.06,0.03 0.12,0.08 0.06,0.17 -0.02,0.05 -0.11,0.08 -0.18,0.05 -0.14,-0.08 -0.03,-0.3 0.12,-0.22zm-0.37 -0.61c-0.19,-0.2 0.12,-0.38 0.18,-0.12 0.03,0.11 -0.08,0.14 -0.18,0.12zm0.89 -1.29c0.04,0.02 0.05,0.01 0.07,0.07 0.01,0.05 0,0.09 -0.02,0.13 -0.02,0.05 -0.12,0.08 -0.19,0.04 -0.15,-0.07 -0.05,-0.34 0.14,-0.24zm-1.13 0.21c0.2,0.1 0.03,0.37 -0.16,0.28 -0.17,-0.08 -0.04,-0.37 0.16,-0.28zm1.34 -1.27c0.25,0.08 0.12,0.41 -0.12,0.34 -0.23,-0.07 -0.12,-0.42 0.12,-0.34zm-0.75 0.66c0.28,0.11 0.12,0.47 -0.14,0.38 -0.23,-0.08 -0.12,-0.48 0.14,-0.38zm4.32 -0.98c0.12,0.03 0.22,0.12 0.2,0.27 -0.02,0.11 -0.14,0.19 -0.28,0.17 -0.3,-0.05 -0.22,-0.54 0.08,-0.44zm-2.77 0.08c0.02,0.01 0.08,0.02 0.13,0.11 0.03,0.06 0.03,0.14 -0.01,0.2 -0.05,0.1 -0.19,0.17 -0.33,0.12 -0.27,-0.11 -0.11,-0.58 0.21,-0.43zm0.23 0.71c0.37,0.11 0.18,0.57 -0.14,0.48 -0.31,-0.08 -0.2,-0.59 0.14,-0.48z"/>
  <path class="fil0" d="M4.37 2.95c0.09,0.17 -0.26,0.3 -0.13,1.09 0.05,0.33 0.15,0.71 0.29,0.98 0.24,0.44 1.05,0.25 1.09,0.51 0.01,0.1 -0.07,0.14 -0.16,0.13 -0.16,-0.02 -0.38,-0.13 -0.53,-0.12 0.02,0.1 0.28,0.2 0.44,0.32 0.23,0.16 0.11,0.37 -0.16,0.21 -0.07,-0.05 -0.41,-0.28 -0.47,-0.28 -0.2,0.01 0.29,0.27 0.2,0.45 -0.11,0.16 -0.33,-0.09 -0.39,-0.14l-0.49 -0.43c-0.06,-0.05 -0.11,-0.08 -0.17,-0.14 -0.28,-0.23 -0.25,-0.03 -0.48,-0.09 0,-0.16 0.46,-0.34 0.03,-1.08 -0.16,-0.27 -0.49,-0.4 -0.04,-0.99 0.09,-0.13 0.41,-0.43 0.57,-0.38 0.03,0.19 -0.23,0.23 -0.2,0.4 0.11,0.01 0.24,-0.16 0.31,-0.22 0.04,-0.05 0.08,-0.08 0.13,-0.12 0.04,-0.04 0.09,-0.12 0.16,-0.1zm-0.75 1.02c0.13,0.07 0.15,0.37 0,0.28 -0.06,-0.03 -0.18,-0.37 0,-0.28zm0.21 -0.35c0.16,0.08 0.05,0.26 -0.09,0.21 -0.13,-0.05 -0.06,-0.29 0.09,-0.21z"/>
  <path class="fil0" d="M4.95 0.74c0.75,0.15 0.56,1.25 -0.23,1.11 -0.28,-0.05 -0.51,-0.34 -0.44,-0.69 0.06,-0.27 0.33,-0.49 0.67,-0.42zm0.08 0.15c0.18,0.09 0.05,0.3 -0.11,0.23 -0.17,-0.07 -0.07,-0.32 0.11,-0.23z"/>
  <path class="fil0" d="M2.7 3.31c0.16,0.08 0.04,0.36 -0.14,0.24 -0.14,-0.08 -0.04,-0.32 0.14,-0.24z"/>
  <path class="fil0" d="M5.47 2.83c0.04,0.12 -0.1,0.36 -0.19,0.31 -0.07,-0.04 0,-0.15 0.03,-0.19 0.04,-0.08 0.06,-0.13 0.16,-0.12z"/>
  <path class="fil0" d="M4.63 3.77c0,-0.08 0.06,-0.12 0.1,-0.16 0.03,-0.02 0.14,-0.11 0.18,-0.05 0.05,0.08 -0.15,0.28 -0.28,0.21z"/>
  <path class="fil0" d="M4.91 3.23c0.02,0.15 -0.18,0.29 -0.25,0.21 -0.06,-0.06 0.15,-0.27 0.25,-0.21z"/>
  <path class="fil0" d="M6.25 1.54c-0.05,0.04 -0.04,0.04 -0.13,0.03 -0.18,-0.2 0.18,-0.28 0.13,-0.03z"/>
  <path class="fil0" d="M2.86 3.66c0.1,-0.04 0.2,0.02 0.14,0.11 -0.05,0.07 -0.17,0.05 -0.14,-0.11z"/>
 </g>
</svg>
